<svg xmlns="http://www.w3.org/2000/svg" xmlns:svg="http://www.w3.org/2000/svg" id="svg2016" width="23" height="23" version="1.1" viewBox="0 0 6.085 6.085"><metadata id="metadata2013"/><g style="display:inline;opacity:1" id="layer1"><g id="g883" transform="matrix(0.02485844,0,0,0.02485844,6.809016,-1.4471151)"><path style="font-style:normal;font-variant:normal;font-weight:800;font-stretch:normal;font-size:81.476px;line-height:1.25;font-family:Montserrat;-inkscape-font-specification:'Montserrat Ultra-Bold';fill:#9fd8df;fill-opacity:1;stroke-width:4.44794" id="path834" d="m -164.8327,101.07429 v 159.08282 h 52.65115 c 13.000147,0 22.936113,-3.78759 29.80761,-11.36299 6.871521,-7.57539 10.306644,-18.33299 10.306644,-32.2717 0,-7.04607 -0.863208,-13.30514 -2.58341,-18.78244 -0.117221,0.14569 -0.261414,0.30003 -0.445376,0.47327 -1.487897,1.40116 -11.201796,7.80717 -12.549274,8.3207 -1.431049,0.54537 -6.794067,3.2123 -9.012129,2.87018 -1.173665,-0.18119 -2.379116,-0.17879 -3.085019,0.004 -1.031546,0.26899 -2.250296,0.99404 -3.464036,2.06176 l -0.62308,0.54911 -0.89188,-0.90235 c -0.49055,-0.49591 -0.93461,-0.90125 -0.98747,-0.90125 -0.0529,0 -1.38593,1.29735 -2.9613,2.88263 l -2.86346,2.88151 -0.54997,-0.1744 c -0.71493,-0.22698 -1.82582,-0.22924 -2.50244,-0.004 -0.76038,0.2521 -1.35835,0.68455 -2.35959,1.70625 -0.49438,0.50446 -0.94251,0.91712 -0.99648,0.91712 -0.054,0 -1.82,-1.73587 -3.92403,-3.8575 -2.10372,-2.12131 -3.81021,-3.8991 -3.79133,-3.95031 0.0472,-0.12796 0.95013,-0.85284 1.68141,-1.34961 1.52343,-1.03489 3.94455,-2.04547 5.83377,-2.43541 1.02136,-0.21077 2.82675,-0.31217 4.09497,-0.22983 2.75937,0.179 5.74003,1.37011 7.77723,3.10681 0.26637,0.22705 0.5171,0.41211 0.55784,0.41211 0.0408,0 0.33478,-0.22942 0.65345,-0.50947 1.91293,-1.6811 3.68185,-2.62876 5.46261,-2.92794 0.805795,-0.13539 2.210703,-0.0786 3.555144,0.14374 1.682496,0.27806 6.93383,-2.43749 8.104497,-3.04001 0.81886,-0.42156 9.968371,-6.49073 11.042192,-7.47265 0.690382,-0.63134 1.042887,-0.80498 1.498084,-0.75068 -0.428638,-1.15572 -0.894297,-2.27801 -1.405863,-3.35817 -3.157171,-6.81786 -7.522127,-11.81802 -13.093618,-14.99966 4.178618,-3.48469 7.382998,-8.18056 9.611586,-14.08938 2.321445,-6.06032 3.482032,-12.87818 3.482032,-20.45358 0,-12.72669 -3.250977,-22.80192 -9.751043,-30.2258 -6.500063,-7.57539 -15.971131,-11.36297 -28.414121,-11.36297 z m 37.38126,23.83327 10.61818,8.60601 10.53271,8.71245 -7.55004,2.94262 3.64174,10.99277 -8.13262,4.04768 -3.91054,-11.80342 -9.52273,3.60048 2.09529,-13.55949 z m 23.57683,87.21842 c 0.0965,0 0.83577,0.91471 1.31701,1.63041 0.16186,0.24068 0.50714,0.86307 0.76817,1.38358 2.010896,4.01011 1.979951,8.91269 -0.0843,13.25944 -0.69685,1.46732 -2.19644,3.6752 -2.49681,3.6752 -0.0611,0 -1.83581,-1.73816 -3.94315,-3.862 l -3.83182,-3.86089 1.06846,-1.11069 c 0.79338,-0.8245 1.14001,-1.26287 1.344,-1.70175 0.50207,-1.08007 0.57077,-2.08693 0.21708,-3.18945 l -0.15521,-0.48461 2.85334,-2.87018 c 1.56943,-1.57841 2.89382,-2.86906 2.94331,-2.86906 z m -23.79278,0.33403 3.8903,3.91294 c 2.13964,2.15215 3.8903,3.94866 3.8903,3.99335 0,0.0446 -0.16985,0.2761 -0.37789,0.51402 -1.42767,1.6328 -1.34888,4.10117 0.17994,5.61243 0.83904,0.82941 1.70356,1.18884 2.85333,1.18884 1.1128,0 1.80681,-0.26889 2.78248,-1.07675 l 0.46,-0.38043 3.87792,3.90279 c 2.13288,2.14667 3.86671,3.93666 3.85319,3.97748 -0.0703,0.2123 -8.77725,8.88954 -9.51036,9.47783 -3.18542,2.55613 -7.04722,3.80777 -10.9927,3.56195 -2.74138,-0.17088 -5.19673,-1.06435 -7.37459,-2.68447 -0.97228,-0.72329 -3.09025,-2.85175 -3.78008,-3.79862 -1.25942,-1.72873 -2.02689,-3.50598 -2.51255,-5.81848 -0.26595,-1.26637 -0.23904,-4.18474 0.0517,-5.58411 0.29528,-1.42108 0.77398,-2.82968 1.37549,-4.04657 1.17625,-2.37963 1.71727,-3.02782 6.85048,-8.2188 z m 14.35327,5.1618 c 0.15194,0.002 0.30557,0.0175 0.45663,0.051 0.87329,0.18864 1.59819,1.11496 1.59819,2.04141 0,0.79993 -0.11155,0.95049 -2.4507,3.32756 -1.44004,1.46343 -2.37804,2.34178 -2.62165,2.45582 -0.49187,0.23025 -1.30439,0.23174 -1.80513,0.002 -0.70641,-0.32301 -1.18233,-1.08761 -1.17866,-1.89308 0.003,-0.82705 0.2429,-1.16133 2.39108,-3.33892 1.10391,-1.11903 2.15786,-2.13959 2.34272,-2.26785 0.36439,-0.25282 0.8117,-0.38361 1.26752,-0.37814 z"/><rect id="rect838" width="14.251" height="14.347" x="-185.192" y="101.074" style="fill:#9fd8df;fill-opacity:1;fill-rule:evenodd;stroke:none;stroke-width:4.93215;stroke-linecap:round;stroke-linejoin:round;stroke-miterlimit:4;stroke-dasharray:none;paint-order:stroke fill markers"/><rect style="fill:#9fd8df;fill-opacity:1;fill-rule:evenodd;stroke:none;stroke-width:4.93215;stroke-linecap:round;stroke-linejoin:round;stroke-miterlimit:4;stroke-dasharray:none;paint-order:stroke fill markers" id="rect840" width="14.251" height="14.347" x="-185.192" y="129.951"/><rect id="rect842" width="14.251" height="14.347" x="-185.192" y="158.827" style="fill:#9fd8df;fill-opacity:1;fill-rule:evenodd;stroke:none;stroke-width:4.93215;stroke-linecap:round;stroke-linejoin:round;stroke-miterlimit:4;stroke-dasharray:none;paint-order:stroke fill markers"/><rect style="fill:#9fd8df;fill-opacity:1;fill-rule:evenodd;stroke:none;stroke-width:4.93215;stroke-linecap:round;stroke-linejoin:round;stroke-miterlimit:4;stroke-dasharray:none;paint-order:stroke fill markers" id="rect844" width="14.251" height="14.347" x="-185.192" y="187.703"/><rect id="rect846" width="14.251" height="14.347" x="-185.192" y="216.58" style="fill:#9fd8df;fill-opacity:1;fill-rule:evenodd;stroke:none;stroke-width:4.93215;stroke-linecap:round;stroke-linejoin:round;stroke-miterlimit:4;stroke-dasharray:none;paint-order:stroke fill markers"/><rect style="fill:#9fd8df;fill-opacity:1;fill-rule:evenodd;stroke:none;stroke-width:4.93215;stroke-linecap:round;stroke-linejoin:round;stroke-miterlimit:4;stroke-dasharray:none;paint-order:stroke fill markers" id="rect848" width="14.251" height="14.347" x="-185.192" y="245.456"/><rect style="fill:#9fd8df;fill-opacity:1;fill-rule:evenodd;stroke:none;stroke-width:5.88089;stroke-linecap:round;stroke-linejoin:round;stroke-miterlimit:4;stroke-dasharray:none;paint-order:stroke fill markers" id="rect850" width="14.251" height="20.397" x="-206.929" y="101.074"/><rect id="rect852" width="14.251" height="14.347" x="-206.929" y="129.951" style="fill:#9fd8df;fill-opacity:1;fill-rule:evenodd;stroke:none;stroke-width:4.93215;stroke-linecap:round;stroke-linejoin:round;stroke-miterlimit:4;stroke-dasharray:none;paint-order:stroke fill markers"/><rect style="display:inline;fill:#9fd8df;fill-opacity:1;fill-rule:evenodd;stroke:none;stroke-width:4.93215;stroke-linecap:round;stroke-linejoin:round;stroke-miterlimit:4;stroke-dasharray:none;paint-order:stroke fill markers" id="rect854" width="14.251" height="14.347" x="-206.929" y="158.827"/><rect id="rect856" width="14.251" height="14.347" x="-206.929" y="187.703" style="fill:#9fd8df;fill-opacity:1;fill-rule:evenodd;stroke:none;stroke-width:4.93215;stroke-linecap:round;stroke-linejoin:round;stroke-miterlimit:4;stroke-dasharray:none;paint-order:stroke fill markers"/><rect style="fill:#9fd8df;fill-opacity:1;fill-rule:evenodd;stroke:none;stroke-width:4.93215;stroke-linecap:round;stroke-linejoin:round;stroke-miterlimit:4;stroke-dasharray:none;paint-order:stroke fill markers" id="rect858" width="14.251" height="14.347" x="-206.929" y="216.58"/><rect id="rect860" width="14.251" height="19.472" x="-206.929" y="240.331" style="display:inline;fill:#9fd8df;fill-opacity:1;fill-rule:evenodd;stroke:none;stroke-width:5.74597;stroke-linecap:round;stroke-linejoin:round;stroke-miterlimit:4;stroke-dasharray:none;paint-order:stroke fill markers"/><rect style="display:inline;fill:#9fd8df;fill-opacity:1;fill-rule:evenodd;stroke:none;stroke-width:11.9178;stroke-linecap:round;stroke-linejoin:round;stroke-miterlimit:4;stroke-dasharray:none;paint-order:stroke fill markers" id="rect862" width="14.251" height="83.766" x="-230.953" y="142.427"/></g></g></svg>